<svg width="37" height="37" viewBox="0 0 37 37" fill="none" xmlns="http://www.w3.org/2000/svg">
<path fill-rule="evenodd" clip-rule="evenodd" d="M0 18.5C0 8.28245 8.28245 0 18.5 0C28.7176 0 37 8.28245 37 18.5C37 28.7176 28.7176 37 18.5 37C8.28245 37 0 28.7176 0 18.5ZM18.5 3.7C14.5748 3.7 10.8104 5.25928 8.03482 8.03482C5.25928 10.8104 3.7 14.5748 3.7 18.5C3.7 22.4252 5.25928 26.1896 8.03482 28.9652C10.8104 31.7407 14.5748 33.3 18.5 33.3C22.4252 33.3 26.1896 31.7407 28.9652 28.9652C31.7407 26.1896 33.3 22.4252 33.3 18.5C33.3 14.5748 31.7407 10.8104 28.9652 8.03482C26.1896 5.25928 22.4252 3.7 18.5 3.7Z" fill="black"/>
<path fill-rule="evenodd" clip-rule="evenodd" d="M20.35 9.25002C20.35 8.75937 20.1551 8.28882 19.8081 7.94188C19.4612 7.59493 18.9906 7.40002 18.5 7.40002C18.0093 7.40002 17.5388 7.59493 17.1918 7.94188C16.8449 8.28882 16.65 8.75937 16.65 9.25002V16.65H9.24999C8.75934 16.65 8.28879 16.8449 7.94185 17.1919C7.5949 17.5388 7.39999 18.0094 7.39999 18.5C7.39999 18.9907 7.5949 19.4612 7.94185 19.8082C8.28879 20.1551 8.75934 20.35 9.24999 20.35H16.65V27.75C16.65 28.2407 16.8449 28.7112 17.1918 29.0582C17.5388 29.4051 18.0093 29.6 18.5 29.6C18.9906 29.6 19.4612 29.4051 19.8081 29.0582C20.1551 28.7112 20.35 28.2407 20.35 27.75V20.35H27.75C28.2406 20.35 28.7112 20.1551 29.0581 19.8082C29.4051 19.4612 29.6 18.9907 29.6 18.5C29.6 18.0094 29.4051 17.5388 29.0581 17.1919C28.7112 16.8449 28.2406 16.65 27.75 16.65H20.35V9.25002Z" fill="black"/>
</svg>
