<svg width="48" height="48" viewBox="0 0 48 48" fill="none" xmlns="http://www.w3.org/2000/svg">
<path d="M35.58 45.4999H12.42C6.94 45.4999 2.5 41.0399 2.5 35.5599V20.7399C2.5 18.0199 4.18 14.5999 6.34 12.9199L17.12 4.51995C20.36 1.99995 25.54 1.87995 28.9 4.23995L41.26 12.8999C43.64 14.5599 45.5 18.1199 45.5 21.0199V35.5799C45.5 41.0399 41.06 45.4999 35.58 45.4999ZM18.96 6.87995L8.18 15.2799C6.76 16.3999 5.5 18.9399 5.5 20.7399V35.5599C5.5 39.3799 8.6 42.4999 12.42 42.4999H35.58C39.4 42.4999 42.5 39.3999 42.5 35.5799V21.0199C42.5 19.0999 41.12 16.4399 39.54 15.3599L27.18 6.69995C24.9 5.09995 21.14 5.17995 18.96 6.87995Z" fill="#0C0C0C"/>
<path d="M24 37.5C23.18 37.5 22.5 36.82 22.5 36V30C22.5 29.18 23.18 28.5 24 28.5C24.82 28.5 25.5 29.18 25.5 30V36C25.5 36.82 24.82 37.5 24 37.5Z" fill="#0C0C0C"/>
</svg>
