<svg width="48" height="48" viewBox="0 0 48 48" fill="none" xmlns="http://www.w3.org/2000/svg">
<path d="M24.3193 23.24C24.2593 23.24 24.2193 23.24 24.1593 23.24C24.0593 23.22 23.9193 23.22 23.7993 23.24C17.9993 23.06 13.6193 18.5 13.6193 12.88C13.6193 7.16 18.2793 2.5 23.9993 2.5C29.7193 2.5 34.3793 7.16 34.3793 12.88C34.3593 18.5 29.9593 23.06 24.3793 23.24C24.3593 23.24 24.3393 23.24 24.3193 23.24ZM23.9993 5.5C19.9393 5.5 16.6193 8.82 16.6193 12.88C16.6193 16.88 19.7393 20.1 23.7193 20.24C23.8193 20.22 24.0993 20.22 24.3593 20.24C28.2793 20.06 31.3593 16.84 31.3793 12.88C31.3793 8.82 28.0593 5.5 23.9993 5.5Z" fill="#0C0C0C"/>
<path d="M24.3392 45.1C20.4192 45.1 16.4792 44.1 13.4992 42.1C10.7192 40.26 9.19922 37.74 9.19922 35C9.19922 32.26 10.7192 29.72 13.4992 27.86C19.4992 23.88 29.2192 23.88 35.1792 27.86C37.9392 29.7 39.4792 32.22 39.4792 34.96C39.4792 37.7 37.9592 40.24 35.1792 42.1C32.1792 44.1 28.2592 45.1 24.3392 45.1ZM15.1592 30.38C13.2392 31.66 12.1992 33.3 12.1992 35.02C12.1992 36.72 13.2592 38.36 15.1592 39.62C20.1392 42.96 28.5392 42.96 33.5192 39.62C35.4392 38.34 36.4792 36.7 36.4792 34.98C36.4792 33.28 35.4192 31.64 33.5192 30.38C28.5392 27.06 20.1392 27.06 15.1592 30.38Z" fill="#0C0C0C"/>
</svg>
